<?xml version="1.0" standalone="no"?>
<!DOCTYPE svg PUBLIC "-//W3C//DTD SVG 20010904//EN"
 "http://www.w3.org/TR/2001/REC-SVG-20010904/DTD/svg10.dtd">
<svg version="1.0" xmlns="http://www.w3.org/2000/svg"
 width="335.000000pt" height="335.000000pt" viewBox="0 0 335.000000 335.000000"
 preserveAspectRatio="xMidYMid meet">
<metadata>
Created by potrace 1.11, written by Peter Selinger 2001-2013
</metadata>
<g transform="translate(0.000000,335.000000) scale(0.100000,-0.100000)"
fill="#000000" stroke="none">
<path d="M2253 3279 c-26 -12 -148 -124 -314 -287 -149 -147 -279 -267 -289
-267 -9 0 -133 113 -275 252 -142 139 -275 260 -294 270 -32 16 -75 18 -401
21 -433 4 -464 0 -529 -61 -44 -43 -81 -111 -81 -152 0 -40 31 -99 80 -150 26
-27 235 -236 463 -464 457 -456 431 -436 514 -393 173 90 422 131 669 112 128
-10 294 -46 350 -75 16 -8 33 -15 37 -15 5 0 20 -9 34 -20 55 -43 44 -52 554
457 263 262 485 491 494 509 8 18 15 57 15 87 0 45 -6 63 -32 103 -20 29 -50
57 -77 71 -44 23 -45 23 -460 23 -401 0 -418 -1 -458 -21z"/>
<path d="M1630 1600 c-171 -17 -379 -126 -484 -254 -313 -382 -191 -931 254
-1143 107 -51 188 -68 315 -67 205 1 389 76 516 211 99 105 128 150 172 263
64 166 67 313 11 485 -60 181 -197 344 -354 422 -150 73 -277 98 -430 83z"/>
</g>
</svg>
